<svg width="20" height="20" viewBox="0 0 20 20" fill="none" xmlns="http://www.w3.org/2000/svg">
<path fill-rule="evenodd" clip-rule="evenodd" d="M14.8419 1.35008C14.5587 1.40136 14.295 1.50828 14.0394 1.6755C13.8999 1.76674 13.6486 2.00614 12.6394 3.00938C11.9629 3.68188 10.0774 5.55348 8.44936 7.16852C4.38956 11.196 4.7712 10.8099 4.70064 10.9612C4.64664 11.077 4.60698 11.2943 4.30004 13.1557C4.11266 14.292 3.95946 15.255 3.9596 15.2957C3.96078 15.6637 4.2807 16.0073 4.64658 16.0335C4.74484 16.0406 5.1824 15.9681 6.83794 15.6703C8.71996 15.3318 8.91658 15.2929 9.01794 15.2385C9.10768 15.1903 10.0138 14.296 13.6728 10.6442C18.627 5.69982 18.3436 5.9955 18.5127 5.59472C18.7452 5.0437 18.7268 4.39252 18.4639 3.86976C18.3254 3.59434 18.2369 3.4937 17.3811 2.639C16.5044 1.76326 16.4096 1.681 16.1054 1.53196C15.716 1.34116 15.2565 1.275 14.8419 1.35008ZM15.0573 2.8463C15.0067 2.86048 14.9356 2.8909 14.8992 2.9139C14.8501 2.94504 6.82226 10.8949 6.18184 11.5467L6.0743 11.6561L5.85072 13.0074C5.63756 14.2954 5.62904 14.3581 5.66824 14.3492C5.69086 14.3441 6.29436 14.2357 7.00936 14.1085L8.30936 13.8771L12.6938 9.49402C17.4976 4.6917 17.1659 5.0406 17.1659 4.78976C17.1659 4.55774 17.1576 4.54718 16.3036 3.69452C15.716 3.10794 15.5077 2.91202 15.4394 2.88198C15.3183 2.82872 15.1697 2.81484 15.0573 2.8463ZM1.82538 17.218C1.51086 17.3253 1.30014 17.6462 1.32412 17.9813C1.34336 18.2504 1.5088 18.4886 1.75936 18.6079L1.88936 18.6698H9.99978H18.1102L18.2435 18.6041C18.4708 18.4922 18.625 18.2827 18.6595 18.039C18.707 17.7026 18.5355 17.3895 18.2237 17.2434L18.1094 17.1898L10.0194 17.1861C2.31906 17.1827 1.92436 17.1842 1.82538 17.218Z" fill="#9CA3AF"/>
</svg>
