<svg width="18" height="20" viewBox="0 0 18 20" fill="none" xmlns="http://www.w3.org/2000/svg">
<path fill-rule="evenodd" clip-rule="evenodd" d="M8.64071 0.672359C8.60221 0.677039 8.47991 0.694519 8.36895 0.711219C6.89839 0.932439 5.64209 1.99012 5.16327 3.41012C5.04271 3.7677 4.99287 4.01884 4.94995 4.48512L4.93753 4.62012H2.98011C0.947034 4.62012 0.895674 4.62206 0.732174 4.7048C0.603714 4.7698 0.451274 4.92876 0.393134 5.0583C0.214534 5.45628 0.394734 5.9069 0.798954 6.0732C0.908114 6.1181 0.926914 6.11918 1.60547 6.11964L2.30023 6.12012L2.30601 11.8451C2.31147 17.2442 2.31381 17.5784 2.34721 17.7158C2.54963 18.548 3.20353 19.1667 4.03181 19.3096C4.19155 19.3372 4.75485 19.3401 9.08115 19.3351L13.9507 19.3295L14.1107 19.2863C14.7722 19.1075 15.2937 18.6573 15.5412 18.0513C15.7042 17.6523 15.6889 18.2672 15.6954 11.8451L15.7012 6.12012L16.396 6.11964C17.0745 6.11918 17.0933 6.1181 17.2025 6.0732C17.6067 5.9069 17.7869 5.45628 17.6083 5.0583C17.5502 4.92876 17.3977 4.7698 17.2693 4.7048C17.1058 4.62206 17.0544 4.62012 15.0213 4.62012H13.0639L13.0515 4.48512C12.9931 3.85106 12.8788 3.41886 12.64 2.93012C12.063 1.74914 10.9593 0.931919 9.64071 0.709339C9.4584 0.678559 8.79223 0.653919 8.64071 0.672359ZM8.80071 2.17242C8.45591 2.21476 8.20387 2.28066 7.95071 2.3947C7.30771 2.68432 6.81727 3.22816 6.58407 3.91012C6.51773 4.10408 6.46071 4.3919 6.46071 4.53274V4.62012H9.00071H11.5407L11.5407 4.53512C11.5406 4.39592 11.4825 4.10244 11.4171 3.91012C11.1855 3.22968 10.6939 2.68438 10.0507 2.3947C9.87009 2.31334 9.59767 2.23022 9.41407 2.20046C9.26897 2.17696 8.90091 2.16012 8.80071 2.17242ZM3.80551 11.7651L3.81071 17.3901L3.85695 17.4923C3.91105 17.6118 4.01443 17.7179 4.14071 17.7834L4.23071 17.8301H9.00071H13.7707L13.8607 17.7834C13.987 17.7179 14.0904 17.6118 14.1445 17.4923L14.1907 17.3901L14.1959 11.7651L14.2011 6.14012H9.00071H3.80029L3.80551 11.7651ZM6.90785 8.6017C6.75987 8.62116 6.60503 8.69896 6.49473 8.80926C6.37575 8.92824 6.30937 9.0565 6.28095 9.22234C6.26561 9.3118 6.26079 10.1657 6.26489 12.0701L6.27071 14.7901L6.31713 14.9051C6.41817 15.1553 6.67605 15.3481 6.94303 15.373C7.17893 15.3951 7.37829 15.3245 7.54183 15.1609C7.67033 15.0324 7.73703 14.8943 7.76213 14.7049C7.77551 14.6038 7.78055 13.6203 7.77667 11.8701L7.77071 9.19012L7.72723 9.08406C7.58725 8.74262 7.26749 8.55438 6.90785 8.6017ZM10.8653 8.6018C10.6431 8.63142 10.4113 8.80272 10.3083 9.01334C10.2801 9.07084 10.2492 9.17914 10.2396 9.254C10.2149 9.44516 10.2164 14.5547 10.2411 14.7258C10.2658 14.8965 10.337 15.0384 10.4596 15.1609C10.6231 15.3245 10.8225 15.3951 11.0584 15.373C11.3254 15.3481 11.5833 15.1553 11.6843 14.9051L11.7307 14.7901L11.7365 12.0701C11.7406 10.1657 11.7358 9.3118 11.7205 9.22234C11.6495 8.80838 11.2872 8.5455 10.8653 8.6018Z" fill="#9CA3AF"/>
</svg>
